<svg version="1.1" id="Layer_1" xmlns="http://www.w3.org/2000/svg" xmlns:xlink="http://www.w3.org/1999/xlink" x="0px" y="0px"
	 width="100%" viewBox="0 0 500 500" enable-background="new 0 0 500 500" xml:space="preserve">
<path fill="transparent" opacity="1.000000" stroke="none"
	d="
M281.000000,501.000000 
	C187.333359,501.000000 94.166710,501.000000 1.000050,501.000000 
	C1.000033,334.333405 1.000033,167.666794 1.000017,1.000139 
	C167.666565,1.000093 334.333130,1.000093 500.999756,1.000046 
	C500.999847,167.666519 500.999847,334.333038 500.999939,500.999786 
	C427.833344,501.000000 354.666656,501.000000 281.000000,501.000000 
M51.000061,224.500000 
	C51.000019,266.158051 50.948608,307.816223 51.057541,349.473999 
	C51.073162,355.447235 51.349957,361.507996 52.375160,367.376404 
	C60.861404,415.952789 100.843208,450.528015 150.137207,450.867340 
	C217.452805,451.330780 284.777771,451.417786 352.091675,450.840973 
	C407.842255,450.363220 450.928070,406.004242 450.984314,350.231598 
	C451.051025,284.079163 451.033691,217.926514 450.941254,151.774094 
	C450.933136,145.969299 450.597565,140.075516 449.568909,134.375595 
	C440.744995,85.482124 400.680573,51.322994 351.100983,51.083282 
	C284.283508,50.760227 217.461212,50.678997 150.644867,51.103992 
	C94.374786,51.461914 51.090553,95.715332 51.006138,152.015289 
	C50.970413,175.843475 51.000076,199.671753 51.000061,224.500000 
z"/>
<path fill="#01E3C8" opacity="1.000000" stroke="none" 
	d="
M51.000042,224.000000 
	C51.000076,199.671753 50.970413,175.843475 51.006138,152.015289 
	C51.090553,95.715332 94.374786,51.461914 150.644867,51.103992 
	C217.461212,50.678997 284.283508,50.760227 351.100983,51.083282 
	C400.680573,51.322994 440.744995,85.482124 449.568909,134.375595 
	C450.597565,140.075516 450.933136,145.969299 450.941254,151.774094 
	C451.033691,217.926514 451.051025,284.079163 450.984314,350.231598 
	C450.928070,406.004242 407.842255,450.363220 352.091675,450.840973 
	C284.777771,451.417786 217.452805,451.330780 150.137207,450.867340 
	C100.843208,450.528015 60.861404,415.952789 52.375160,367.376404 
	C51.349957,361.507996 51.073162,355.447235 51.057541,349.473999 
	C50.948608,307.816223 51.000019,266.158051 51.000042,224.000000 
M346.245697,259.201080 
	C346.157776,255.419556 346.069885,251.638016 346.419220,247.331741 
	C347.439972,246.785873 348.439240,246.194595 349.484558,245.700668 
	C388.376984,227.323471 408.195923,186.923615 398.961975,144.824890 
	C388.164978,95.600014 334.844635,64.418243 287.190002,79.289886 
	C267.488007,85.438324 251.475143,96.630104 238.069687,112.869011 
	C197.252365,112.859138 156.428833,113.252235 115.621117,112.621048 
	C101.317757,112.399818 90.860008,123.863800 90.899574,137.288986 
	C91.155342,224.087891 91.020691,310.887909 91.041550,397.687561 
	C91.045128,412.595306 100.515686,422.041748 115.319168,422.042572 
	C183.959198,422.046478 252.601273,421.771393 321.237457,422.285553 
	C334.242981,422.382965 346.826599,413.186951 346.525299,396.782318 
	C345.840149,359.476044 346.313660,322.148590 346.297363,284.829742 
	C346.296631,283.174286 346.109741,281.518860 346.421997,279.332581 
	C347.866364,278.539612 349.279999,277.683502 350.760162,276.964203 
	C359.088867,272.916565 367.601501,269.201538 375.665039,264.683533 
	C377.925903,263.416779 380.281097,259.691681 380.064117,257.326202 
	C379.819366,254.658310 377.181244,251.488602 374.704803,249.995880 
	C373.003998,248.970703 369.610352,249.950150 367.310028,250.872864 
	C360.143646,253.747467 353.137573,257.021637 346.245697,259.201080 
M399.914642,311.572632 
	C396.109467,303.445984 392.437714,295.253326 388.459320,287.212402 
	C384.917053,280.052795 377.047546,277.137970 370.448334,280.203644 
	C362.918976,283.701416 359.836273,291.182983 362.923370,298.912659 
	C364.400391,302.610901 366.209259,306.177460 367.889893,309.793396 
	C378.255157,332.094635 388.593353,354.408508 399.016388,376.682709 
	C402.152374,383.384369 408.179565,386.681763 414.650818,385.554443 
	C424.198059,383.891266 428.923218,374.240112 424.561829,364.714172 
	C416.537628,347.188110 408.308258,329.755981 399.914642,311.572632 
z"/>
<path fill="#010303" opacity="1.000000" stroke="none" 
	d="
M239.000122,112.995636 
	C251.475143,96.630104 267.488007,85.438324 287.190002,79.289886 
	C334.844635,64.418243 388.164978,95.600014 398.961975,144.824890 
	C408.195923,186.923615 388.376984,227.323471 349.484558,245.700668 
	C348.439240,246.194595 347.439972,246.785873 345.817017,247.624420 
	C343.744629,248.322784 342.274506,248.728470 340.447052,249.208008 
	C333.727631,250.855240 327.365540,252.428589 320.536102,253.965363 
	C301.784088,254.983887 284.492706,251.496048 268.354370,242.670883 
	C265.349548,241.027725 262.278351,239.505951 259.145264,237.598724 
	C257.057251,235.594818 255.061829,233.920334 252.932190,231.921158 
	C246.513184,223.705948 240.228394,215.815430 233.767792,207.626526 
	C226.002182,193.143173 222.414017,178.047043 222.802734,161.926315 
	C223.174866,146.493454 228.054352,132.439041 235.436798,118.830521 
	C236.815933,116.784904 237.908020,114.890274 239.000122,112.995636 
M262.257294,220.321915 
	C281.125580,236.537231 302.897949,241.978363 327.979309,237.756851 
	C332.366638,236.185349 336.753937,234.613846 341.776489,232.989044 
	C343.192200,232.145020 344.607880,231.300995 346.787292,230.413651 
	C373.851288,218.913818 391.755157,182.689270 385.535004,152.016174 
	C376.865601,109.265511 339.065002,83.760094 296.162018,92.132225 
	C281.688538,94.956589 268.950073,101.561966 258.442322,113.156700 
	C256.938843,114.981079 255.435394,116.805466 253.311737,118.960579 
	C249.630844,125.400337 244.999237,131.484436 242.433899,138.341522 
	C231.433624,167.744888 239.731644,201.260468 262.257294,220.321915 
z"/>
<path fill="#3E3F3F" opacity="1.000000" stroke="none" 
	d="
M238.534912,112.932327 
	C237.908020,114.890274 236.815933,116.784904 234.961487,118.771889 
	C196.213226,118.858109 158.227280,118.840614 120.241348,118.851700 
	C105.987160,118.855865 96.863281,127.889465 96.858406,142.158844 
	C96.829880,225.627975 96.829102,309.097107 96.862938,392.566223 
	C96.868782,406.990448 106.138634,416.018921 120.704437,416.019836 
	C186.180222,416.023987 251.655991,416.023712 317.131775,416.020142 
	C331.725983,416.019348 341.000854,406.682373 341.008087,391.945435 
	C341.026398,354.625946 341.022247,317.306427 341.442200,279.985657 
	C343.241394,279.944031 344.625488,279.903748 346.009552,279.863434 
	C346.109741,281.518860 346.296631,283.174286 346.297363,284.829742 
	C346.313660,322.148590 345.840149,359.476044 346.525299,396.782318 
	C346.826599,413.186951 334.242981,422.382965 321.237457,422.285553 
	C252.601273,421.771393 183.959198,422.046478 115.319168,422.042572 
	C100.515686,422.041748 91.045128,412.595306 91.041550,397.687561 
	C91.020691,310.887909 91.155342,224.087891 90.899574,137.288986 
	C90.860008,123.863800 101.317757,112.399818 115.621117,112.621048 
	C156.428833,113.252235 197.252365,112.859138 238.534912,112.932327 
z"/>
<path fill="#000202" opacity="1.000000" stroke="none" 
	d="
M400.039551,311.928680 
	C408.308258,329.755981 416.537628,347.188110 424.561829,364.714172 
	C428.923218,374.240112 424.198059,383.891266 414.650818,385.554443 
	C408.179565,386.681763 402.152374,383.384369 399.016388,376.682709 
	C388.593353,354.408508 378.255157,332.094635 367.889893,309.793396 
	C366.209259,306.177460 364.400391,302.610901 362.923370,298.912659 
	C359.836273,291.182983 362.918976,283.701416 370.448334,280.203644 
	C377.047546,277.137970 384.917053,280.052795 388.459320,287.212402 
	C392.437714,295.253326 396.109467,303.445984 400.039551,311.928680 
z"/>
<path fill="#010403" opacity="1.000000" stroke="none" 
	d="
M346.215759,279.598022 
	C344.625488,279.903748 343.241394,279.944031 341.146057,279.796509 
	C338.545197,277.225006 335.699829,275.097351 334.977692,272.401031 
	C333.721741,267.711639 337.447144,265.137604 341.433533,262.992157 
	C343.201050,262.015594 344.635162,261.078217 346.069305,260.140869 
	C353.137573,257.021637 360.143646,253.747467 367.310028,250.872864 
	C369.610352,249.950150 373.003998,248.970703 374.704803,249.995880 
	C377.181244,251.488602 379.819366,254.658310 380.064117,257.326202 
	C380.281097,259.691681 377.925903,263.416779 375.665039,264.683533 
	C367.601501,269.201538 359.088867,272.916565 350.760162,276.964203 
	C349.279999,277.683502 347.866364,278.539612 346.215759,279.598022 
z"/>
<path fill="#383A3A" opacity="1.000000" stroke="none" 
	d="
M346.157501,259.670959 
	C344.635162,261.078217 343.201050,262.015594 341.401062,262.527344 
	C340.958221,257.779205 340.881287,253.456680 340.804352,249.134155 
	C342.274506,248.728470 343.744629,248.322784 345.598389,247.886795 
	C346.069885,251.638016 346.157776,255.419556 346.157501,259.670959 
z"/>
<path fill="#FDFDFD" opacity="1.000000" stroke="none" 
	d="
M340.447052,249.208023 
	C340.881287,253.456680 340.958221,257.779205 341.067627,262.566528 
	C337.447144,265.137604 333.721741,267.711639 334.977692,272.401031 
	C335.699829,275.097351 338.545197,277.225006 340.730957,279.797791 
	C341.022247,317.306427 341.026398,354.625946 341.008087,391.945435 
	C341.000854,406.682373 331.725983,416.019348 317.131775,416.020142 
	C251.655991,416.023712 186.180222,416.023987 120.704437,416.019836 
	C106.138634,416.018921 96.868782,406.990448 96.862938,392.566223 
	C96.829102,309.097107 96.829880,225.627975 96.858406,142.158844 
	C96.863281,127.889465 105.987160,118.855865 120.241348,118.851700 
	C158.227280,118.840614 196.213226,118.858109 234.674454,118.922882 
	C228.054352,132.439041 223.174866,146.493454 222.802734,161.926315 
	C222.414017,178.047043 226.002182,193.143173 233.340164,207.827972 
	C224.758392,208.342377 216.427292,208.276321 208.098709,208.391098 
	C196.667679,208.548645 187.501129,215.649261 185.419235,226.414734 
	C184.640533,230.441391 184.997177,234.708298 185.017181,238.864792 
	C185.074890,250.855530 193.433990,260.393250 205.409851,261.172333 
	C214.521057,261.765106 223.725983,261.691711 232.845947,261.165100 
	C242.699112,260.596191 250.546524,253.669617 252.536499,244.178360 
	C253.342758,240.332870 252.926407,236.231033 253.066391,232.245850 
	C255.061829,233.920334 257.057251,235.594818 259.024658,238.019196 
	C259.103271,250.951599 267.125702,260.393127 279.080505,261.155640 
	C288.656525,261.766388 298.392731,261.955750 307.886780,260.855743 
	C312.462250,260.325623 316.643585,256.393524 321.003418,254.001923 
	C327.365540,252.428589 333.727631,250.855240 340.447052,249.208023 
M291.499390,276.837616 
	C264.013184,276.837555 236.526978,276.837433 209.040771,276.837433 
	C183.886734,276.837402 158.732620,276.806183 133.578659,276.850281 
	C120.177795,276.873779 110.956528,286.041260 110.844276,299.310486 
	C110.820320,302.142120 110.806671,304.974976 110.858986,307.805969 
	C111.085739,320.076263 120.838577,329.947418 133.186844,329.963379 
	C190.324738,330.037262 247.462830,330.035004 304.600739,329.961060 
	C315.384979,329.947113 325.145691,321.660461 326.730469,311.179810 
	C327.347015,307.102448 327.051880,302.869293 326.985657,298.710083 
	C326.792328,286.562073 317.169952,277.022766 304.992493,276.849579 
	C300.828735,276.790344 296.663483,276.838470 291.499390,276.837616 
M220.500000,344.971710 
	C191.349182,344.971802 162.198349,344.947906 133.047577,344.984985 
	C122.942116,344.997864 113.973351,351.416931 111.591156,361.173645 
	C110.471794,365.758148 110.850967,370.756348 110.882637,375.564880 
	C110.968933,388.664154 120.516174,398.017029 133.709427,398.020966 
	C190.511810,398.037903 247.314194,398.035614 304.116577,398.021362 
	C315.069977,398.018585 324.228058,390.984070 326.484436,380.338470 
	C327.298706,376.496826 327.001373,372.392761 326.994904,368.408813 
	C326.972137,354.422607 317.457794,344.980225 303.455353,344.974915 
	C276.136902,344.964508 248.818451,344.971741 220.500000,344.971710 
M183.486343,139.970917 
	C166.681366,139.971008 149.876251,139.928894 133.071457,139.985107 
	C120.557655,140.026947 111.072266,149.473419 110.855003,162.024597 
	C110.791672,165.683289 110.764664,169.349731 110.923767,173.003784 
	C111.371986,183.298111 120.570511,192.904282 130.891251,193.039490 
	C151.851791,193.314133 172.820526,193.303177 193.781647,193.054184 
	C204.445587,192.927521 213.790710,182.932114 214.037033,172.174469 
	C214.113190,168.848465 214.087128,165.519073 214.054245,162.191772 
	C213.947495,151.385559 206.445877,142.093811 195.929688,140.298080 
	C192.202957,139.661728 188.301208,140.050262 183.486343,139.970917 
M147.472198,208.369446 
	C142.645401,208.370377 137.814362,208.240433 132.992645,208.397491 
	C120.021591,208.820038 110.945435,218.168732 110.836075,231.087891 
	C110.812126,233.917145 110.798897,236.747589 110.850800,239.576187 
	C111.063004,251.140045 119.241486,260.440430 130.737259,261.146118 
	C140.008957,261.715271 149.363663,261.632965 158.645126,261.145752 
	C168.009323,260.654175 175.953201,254.028275 177.930740,244.995804 
	C182.430847,224.441605 174.589264,206.509247 150.454971,208.363205 
	C149.793106,208.414047 149.123932,208.369598 147.472198,208.369446 
z"/>
<path fill="#3A3A3A" opacity="1.000000" stroke="none" 
	d="
M346.023560,230.456970 
	C344.607880,231.300995 343.192200,232.145020 341.408936,232.546646 
	C341.041351,219.181824 341.041351,206.259399 341.041351,193.683762 
	C340.316589,193.266098 340.180054,193.118576 340.043152,193.118271 
	C322.896332,193.080139 305.745300,193.249786 288.605713,192.882675 
	C284.464478,192.793961 280.071075,191.550919 276.291504,189.777603 
	C261.276672,182.732941 261.970764,154.449951 272.010498,145.924393 
	C276.662933,141.973663 281.675476,139.772369 287.824799,139.805878 
	C305.445770,139.901901 323.067596,139.839691 340.691681,139.839691 
	C340.539001,128.941849 331.393982,119.136986 320.841217,118.944138 
	C306.199371,118.676575 291.547852,118.939369 276.577332,118.848106 
	C273.691864,115.704613 271.311829,117.246803 268.480652,118.957153 
	C263.324341,118.810432 258.628143,118.720139 253.931946,118.629852 
	C255.435394,116.805466 256.938843,114.981079 259.219666,113.012299 
	C280.825867,112.866074 301.673859,113.405930 322.476715,112.669495 
	C336.047150,112.189087 347.489471,123.873589 346.311798,135.793427 
	C346.189331,137.033310 346.549774,138.320908 346.675323,139.485794 
	C360.528442,141.579315 368.239197,149.753754 368.812439,162.601242 
	C369.663452,181.675354 364.042358,189.548447 346.023560,193.721207 
	C346.023560,205.857910 346.023560,218.157440 346.023560,230.456970 
z"/>
<path fill="#01E0C5" opacity="1.000000" stroke="none" 
	d="
M346.405426,230.435303 
	C346.023560,218.157440 346.023560,205.857910 346.023560,193.721207 
	C364.042358,189.548447 369.663452,181.675354 368.812439,162.601242 
	C368.239197,149.753754 360.528442,141.579315 346.675323,139.485794 
	C346.549774,138.320908 346.189331,137.033310 346.311798,135.793427 
	C347.489471,123.873589 336.047150,112.189087 322.476715,112.669495 
	C301.673859,113.405930 280.825867,112.866074 259.531616,112.892632 
	C268.950073,101.561966 281.688538,94.956589 296.162018,92.132225 
	C339.065002,83.760094 376.865601,109.265511 385.535004,152.016174 
	C391.755157,182.689270 373.851288,218.913818 346.405426,230.435303 
z"/>
<path fill="#FCFCFC" opacity="1.000000" stroke="none" 
	d="
M276.900452,118.975098 
	C291.547852,118.939369 306.199371,118.676575 320.841217,118.944138 
	C331.393982,119.136986 340.539001,128.941849 340.691681,139.839691 
	C323.067596,139.839691 305.445770,139.901901 287.824799,139.805878 
	C281.675476,139.772369 276.662933,141.973663 272.010498,145.924393 
	C261.970764,154.449951 261.276672,182.732941 276.291504,189.777603 
	C280.071075,191.550919 284.464478,192.793961 288.605713,192.882675 
	C305.745300,193.249786 322.896332,193.080139 340.043152,193.118271 
	C340.180054,193.118576 340.316589,193.266098 341.041351,193.683762 
	C341.041351,206.259399 341.041351,219.181824 341.091309,232.573288 
	C336.753937,234.613846 332.366638,236.185349 327.544434,237.353439 
	C327.077728,234.961685 327.039795,232.973404 327.015076,230.984970 
	C326.870209,219.334015 318.824402,209.753235 307.160522,208.751678 
	C298.803741,208.034103 290.324249,208.745255 281.566467,208.648376 
	C279.088379,206.956131 276.747620,205.646896 274.829285,203.879242 
	C259.768127,190.000946 251.939362,173.450012 259.505707,153.178558 
	C262.969513,143.898468 269.348969,135.724792 274.179077,126.924690 
	C275.506775,124.505676 276.015778,121.637283 276.900452,118.975098 
z"/>
<path fill="#3B3B3B" opacity="1.000000" stroke="none" 
	d="
M252.932190,231.921158 
	C252.926407,236.231033 253.342758,240.332870 252.536499,244.178360 
	C250.546524,253.669617 242.699112,260.596191 232.845947,261.165100 
	C223.725983,261.691711 214.521057,261.765106 205.409851,261.172333 
	C193.433990,260.393250 185.074890,250.855530 185.017181,238.864792 
	C184.997177,234.708298 184.640533,230.441391 185.419235,226.414734 
	C187.501129,215.649261 196.667679,208.548645 208.098709,208.391098 
	C216.427292,208.276321 224.758392,208.342377 233.515991,208.126343 
	C240.228394,215.815430 246.513184,223.705948 252.932190,231.921158 
z"/>
<path fill="#FAFAFA" opacity="1.000000" stroke="none" 
	d="
M253.621841,118.795212 
	C258.628143,118.720139 263.324341,118.810432 268.380646,119.276154 
	C263.883667,127.161514 258.157959,134.256516 254.334671,142.260284 
	C243.487350,164.968262 246.160324,186.141663 263.532776,204.939941 
	C265.654999,207.236374 267.697510,209.606461 269.445160,211.977142 
	C266.721680,214.575577 264.330017,217.139267 261.938354,219.702942 
	C239.731644,201.260468 231.433624,167.744888 242.433899,138.341522 
	C244.999237,131.484436 249.630844,125.400337 253.621841,118.795212 
z"/>
<path fill="#3B3B3B" opacity="1.000000" stroke="none" 
	d="
M262.097839,220.012421 
	C264.330017,217.139267 266.721680,214.575577 269.788513,212.072815 
	C271.816254,213.093140 273.179077,214.038528 274.519806,215.014221 
	C285.278076,222.843292 296.969025,227.828522 310.611969,227.099808 
	C313.659607,226.937012 316.394592,225.932755 315.780792,222.664444 
	C315.451508,220.910812 312.903046,219.241501 310.987946,218.232910 
	C309.673828,217.540833 307.720581,218.130981 306.062927,218.011063 
	C297.095581,217.362274 288.866119,214.742020 281.899506,208.818985 
	C290.324249,208.745255 298.803741,208.034103 307.160522,208.751678 
	C318.824402,209.753235 326.870209,219.334015 327.015076,230.984970 
	C327.039795,232.973404 327.077728,234.961685 327.180878,237.395447 
	C302.897949,241.978363 281.125580,236.537231 262.097839,220.012421 
z"/>
<path fill="#3E3E3E" opacity="1.000000" stroke="none" 
	d="
M320.536102,253.965347 
	C316.643585,256.393524 312.462250,260.325623 307.886780,260.855743 
	C298.392731,261.955750 288.656525,261.766388 279.080505,261.155640 
	C267.125702,260.393127 259.103271,250.951599 259.117188,238.348633 
	C262.278351,239.505951 265.349548,241.027725 268.354370,242.670883 
	C284.492706,251.496048 301.784088,254.983887 320.536102,253.965347 
z"/>
<path fill="#393939" opacity="1.000000" stroke="none" 
	d="
M291.999146,276.837585 
	C296.663483,276.838470 300.828735,276.790344 304.992493,276.849579 
	C317.169952,277.022766 326.792328,286.562073 326.985657,298.710083 
	C327.051880,302.869293 327.347015,307.102448 326.730469,311.179810 
	C325.145691,321.660461 315.384979,329.947113 304.600739,329.961060 
	C247.462830,330.035004 190.324738,330.037262 133.186844,329.963379 
	C120.838577,329.947418 111.085739,320.076263 110.858986,307.805969 
	C110.806671,304.974976 110.820320,302.142120 110.844276,299.310486 
	C110.956528,286.041260 120.177795,276.873779 133.578659,276.850281 
	C158.732620,276.806183 183.886734,276.837402 209.040771,276.837433 
	C236.526978,276.837433 264.013184,276.837555 291.999146,276.837585 
z"/>
<path fill="#393939" opacity="1.000000" stroke="none" 
	d="
M221.000000,344.971710 
	C248.818451,344.971741 276.136902,344.964508 303.455353,344.974915 
	C317.457794,344.980225 326.972137,354.422607 326.994904,368.408813 
	C327.001373,372.392761 327.298706,376.496826 326.484436,380.338470 
	C324.228058,390.984070 315.069977,398.018585 304.116577,398.021362 
	C247.314194,398.035614 190.511810,398.037903 133.709427,398.020966 
	C120.516174,398.017029 110.968933,388.664154 110.882637,375.564880 
	C110.850967,370.756348 110.471794,365.758148 111.591156,361.173645 
	C113.973351,351.416931 122.942116,344.997864 133.047577,344.984985 
	C162.198349,344.947906 191.349182,344.971802 221.000000,344.971710 
z"/>
<path fill="#3A3A3A" opacity="1.000000" stroke="none" 
	d="
M183.982849,139.970917 
	C188.301208,140.050262 192.202957,139.661728 195.929688,140.298080 
	C206.445877,142.093811 213.947495,151.385559 214.054245,162.191772 
	C214.087128,165.519073 214.113190,168.848465 214.037033,172.174469 
	C213.790710,182.932114 204.445587,192.927521 193.781647,193.054184 
	C172.820526,193.303177 151.851791,193.314133 130.891251,193.039490 
	C120.570511,192.904282 111.371986,183.298111 110.923767,173.003784 
	C110.764664,169.349731 110.791672,165.683289 110.855003,162.024597 
	C111.072266,149.473419 120.557655,140.026947 133.071457,139.985107 
	C149.876251,139.928894 166.681366,139.971008 183.982849,139.970917 
z"/>
<path fill="#3B3B3B" opacity="1.000000" stroke="none" 
	d="
M147.965179,208.369507 
	C149.123932,208.369598 149.793106,208.414047 150.454971,208.363205 
	C174.589264,206.509247 182.430847,224.441605 177.930740,244.995804 
	C175.953201,254.028275 168.009323,260.654175 158.645126,261.145752 
	C149.363663,261.632965 140.008957,261.715271 130.737259,261.146118 
	C119.241486,260.440430 111.063004,251.140045 110.850800,239.576187 
	C110.798897,236.747589 110.812126,233.917145 110.836075,231.087891 
	C110.945435,218.168732 120.021591,208.820038 132.992645,208.397491 
	C137.814362,208.240433 142.645401,208.370377 147.965179,208.369507 
z"/>
<path fill="#050505" opacity="1.000000" stroke="none" 
	d="
M281.566467,208.648376 
	C288.866119,214.742020 297.095581,217.362274 306.062927,218.011063 
	C307.720581,218.130981 309.673828,217.540833 310.987946,218.232910 
	C312.903046,219.241501 315.451508,220.910812 315.780792,222.664444 
	C316.394592,225.932755 313.659607,226.937012 310.611969,227.099808 
	C296.969025,227.828522 285.278076,222.843292 274.519806,215.014221 
	C273.179077,214.038528 271.816254,213.093140 270.120300,212.038055 
	C267.697510,209.606461 265.654999,207.236374 263.532776,204.939941 
	C246.160324,186.141663 243.487350,164.968262 254.334671,142.260284 
	C258.157959,134.256516 263.883667,127.161514 268.840759,119.332581 
	C271.311829,117.246803 273.691864,115.704613 276.577332,118.848106 
	C276.015778,121.637283 275.506775,124.505676 274.179077,126.924690 
	C269.348969,135.724792 262.969513,143.898468 259.505707,153.178558 
	C251.939362,173.450012 259.768127,190.000946 274.829285,203.879242 
	C276.747620,205.646896 279.088379,206.956131 281.566467,208.648376 
z"/>
</svg>